<svg xmlns="http://www.w3.org/2000/svg" xmlns:xlink="http://www.w3.org/1999/xlink" viewBox="0 0 350.51 702.95"><defs><style>.cls-1{fill:#3f3d56;}.cls-2{fill:#fff;}</style></defs><g id="Layer_2" data-name="Layer 2"><g id="ade8c9af-8376-4472-9bc3-28567412a130"><path class="cls-1" d="M350.51,167.05h-3.86V61.24A61.24,61.24,0,0,0,285.41,0H61.24A61.24,61.24,0,0,0,0,61.24H0V641.72A61.23,61.23,0,0,0,61.24,703H285.41a61.23,61.23,0,0,0,61.24-61.23h0V242.36h3.86Z"/><path class="cls-2" d="M287.88,16.93H258.62A21.73,21.73,0,0,1,238.5,46.87H110.08A21.73,21.73,0,0,1,90,16.93H62.63A45.73,45.73,0,0,0,16.9,62.67V642.29A45.72,45.72,0,0,0,62.63,688H287.88a45.72,45.72,0,0,0,45.73-45.73h0V62.67a45.73,45.73,0,0,0-45.73-45.74Z"/><image width="6912" height="6912" transform="translate(17.65 191.8) scale(0.05)" xlink:href="../mainlogo.png"/></g></g></svg>